<?xml version="1.0" encoding="UTF-8"?>
<!DOCTYPE svg PUBLIC "-//W3C//DTD SVG 1.1//EN" "http://www.w3.org/Graphics/SVG/1.1/DTD/svg11.dtd">
<svg xmlns="http://www.w3.org/2000/svg" version="1.1" width="522px" height="170px" style="shape-rendering:geometricPrecision; text-rendering:geometricPrecision; image-rendering:optimizeQuality; fill-rule:evenodd; clip-rule:evenodd" xmlns:xlink="http://www.w3.org/1999/xlink">
<g><path style="opacity:0.858" fill="#872585" d="M 279.5,0.5 C 291.401,-0.0763349 295.901,5.59033 293,17.5C 281.883,57.4743 270.383,97.3077 258.5,137C 277.102,134.932 282.602,142.432 275,159.5C 273.421,161.041 271.587,162.208 269.5,163C 258.902,165.525 248.568,164.859 238.5,161C 234.701,155.074 233.535,148.574 235,141.5C 247.532,95.908 260.865,50.5746 275,5.5C 276.707,3.96252 278.207,2.29585 279.5,0.5 Z"/></g>
<g><path style="opacity:1" fill="#a82da5" d="M 281.5,4.5 C 288.382,4.88651 290.882,8.55318 289,15.5C 277.17,55.8137 265.67,96.147 254.5,136.5C 254.39,138.374 255.056,139.874 256.5,141C 261.5,141.333 266.5,141.667 271.5,142C 273.928,146.296 274.094,150.796 272,155.5C 270.681,157.487 268.848,158.654 266.5,159C 258.833,159.667 251.167,159.667 243.5,159C 238.85,154.426 237.35,148.926 239,142.5C 251.537,98.829 264.204,55.1624 277,11.5C 278.012,8.7982 279.512,6.46486 281.5,4.5 Z"/></g>
<g><path style="opacity:0.856" fill="#872585" d="M 30.5,56.5 C 35.7419,55.2706 39.5752,56.9372 42,61.5C 42.3333,68.5 42.6667,75.5 43,82.5C 48.2251,93.6152 52.8918,104.948 57,116.5C 61.3479,154.815 44.5146,170.315 6.5,163C 4.33333,162.167 2.83333,160.667 2,158.5C -0.56013,149.64 1.93987,142.806 9.5,138C 16.5514,137.789 23.5514,137.122 30.5,136C 33.3333,135.167 35.1667,133.333 36,130.5C 37.1879,122.724 35.8546,115.391 32,108.5C 30.0546,113.557 27.2212,118.057 23.5,122C 19.9595,123.785 16.6262,123.285 13.5,120.5C 11.3398,117.707 10.0065,114.54 9.5,111C 13.7271,95.985 18.5605,81.1516 24,66.5C 25.4305,62.6262 27.5972,59.2928 30.5,56.5 Z"/></g>
<g><path style="opacity:1" fill="#a82da5" d="M 32.5,60.5 C 35.2385,59.9648 37.0718,60.9648 38,63.5C 37.594,69.472 37.594,75.472 38,81.5C 42.391,92.6156 47.0577,103.616 52,114.5C 54.4327,125.38 53.766,136.047 50,146.5C 46.3733,152.131 41.5399,156.298 35.5,159C 26.5,159.667 17.5,159.667 8.5,159C 5.01804,154.969 4.51804,150.469 7,145.5C 7.83333,144.667 8.66667,143.833 9.5,143C 16.3938,141.74 23.3938,141.074 30.5,141C 36,139.5 39.5,136 41,130.5C 41.7528,120.1 39.2528,110.6 33.5,102C 31.2992,101.175 29.4659,101.675 28,103.5C 26.9521,108.9 24.7855,113.734 21.5,118C 18.1961,119.042 16.0295,117.875 15,114.5C 14.3333,111.5 14.3333,108.5 15,105.5C 19.6667,92.1667 24.3333,78.8333 29,65.5C 30.1764,63.8043 31.343,62.1376 32.5,60.5 Z"/></g>
<g><path style="opacity:0.86" fill="#872585" d="M 127.5,70.5 C 136.727,69.0545 141.393,73.0545 141.5,82.5C 141.14,86.2728 140.307,89.9395 139,93.5C 127.333,115.167 115.667,136.833 104,158.5C 97.9321,166.506 90.9321,167.506 83,161.5C 80.0603,155.704 78.5603,149.537 78.5,143C 79.7289,125.505 80.8955,108.005 82,90.5C 81.9817,83.5455 84.4817,77.7122 89.5,73C 93.572,72.0441 97.4054,72.5441 101,74.5C 102.064,78.7478 102.564,83.0811 102.5,87.5C 101.855,97.5232 101.355,107.523 101,117.5C 107.922,104.656 114.589,91.6564 121,78.5C 123.001,75.6693 125.167,73.0026 127.5,70.5 Z"/></g>
<g><path style="opacity:0.863" fill="#872585" d="M 181.5,70.5 C 198.589,67.7726 209.089,74.7726 213,91.5C 215.147,102.726 213.147,113.059 207,122.5C 202.092,127.026 196.259,129.193 189.5,129C 183.843,129.499 178.176,129.666 172.5,129.5C 172.444,132.561 173.778,134.728 176.5,136C 189.216,136.935 201.882,137.935 214.5,139C 218.32,145.356 218.487,151.856 215,158.5C 213.457,160.378 211.624,161.878 209.5,163C 196.507,164.947 183.507,164.947 170.5,163C 159.589,159.07 153.422,151.237 152,139.5C 148.857,119.207 152.857,100.54 164,83.5C 168.63,77.3462 174.463,73.0128 181.5,70.5 Z M 184.5,95.5 C 191.635,93.9669 194.301,96.6336 192.5,103.5C 187.476,105.948 182.143,106.781 176.5,106C 178.108,101.582 180.775,98.0822 184.5,95.5 Z"/></g>
<g><path style="opacity:0.865" fill="#872585" d="M 326.5,70.5 C 344.782,67.9429 356.282,75.6095 361,93.5C 365.439,114.971 361.773,134.971 350,153.5C 343.725,161.316 335.558,164.983 325.5,164.5C 310.084,164.925 300.584,157.592 297,142.5C 291.082,115.978 297.916,93.478 317.5,75C 320.592,73.4541 323.592,71.9541 326.5,70.5 Z M 328.5,97.5 C 332.603,96.7691 336.103,97.7691 339,100.5C 343.884,112.968 342.051,124.468 333.5,135C 322.426,139.131 316.76,135.298 316.5,123.5C 316.738,113.028 320.738,104.361 328.5,97.5 Z"/></g>
<g><path style="opacity:0.86" fill="#872585" d="M 431.5,70.5 C 440.727,69.0545 445.393,73.0545 445.5,82.5C 445.14,86.2728 444.307,89.9395 443,93.5C 431.333,115.167 419.667,136.833 408,158.5C 401.932,166.506 394.932,167.506 387,161.5C 384.06,155.704 382.56,149.537 382.5,143C 383.729,125.505 384.896,108.005 386,90.5C 385.982,83.5455 388.482,77.7122 393.5,73C 397.572,72.0441 401.405,72.5441 405,74.5C 406.064,78.7478 406.564,83.0811 406.5,87.5C 405.855,97.5232 405.355,107.523 405,117.5C 411.922,104.656 418.589,91.6564 425,78.5C 427.001,75.6693 429.167,73.0026 431.5,70.5 Z"/></g>
<g><path style="opacity:0.863" fill="#872585" d="M 521.5,143.5 C 521.5,146.833 521.5,150.167 521.5,153.5C 520.171,157.672 517.505,160.839 513.5,163C 500.507,164.947 487.507,164.947 474.5,163C 463.589,159.07 457.422,151.237 456,139.5C 452.857,119.207 456.857,100.54 468,83.5C 477.898,70.6445 490.398,67.1445 505.5,73C 511.991,77.4763 515.825,83.643 517,91.5C 519.576,103.62 517.076,114.453 509.5,124C 507.112,125.861 504.446,127.194 501.5,128C 493.208,129.184 484.875,129.684 476.5,129.5C 476.444,132.561 477.778,134.728 480.5,136C 492.452,137.225 504.452,137.891 516.5,138C 518.749,139.352 520.416,141.185 521.5,143.5 Z M 488.5,95.5 C 495.635,93.9669 498.301,96.6336 496.5,103.5C 491.476,105.948 486.143,106.781 480.5,106C 482.108,101.582 484.775,98.0822 488.5,95.5 Z"/></g>
<g><path style="opacity:1" fill="#a82da5" d="M 129.5,74.5 C 134.641,74.6443 136.975,77.311 136.5,82.5C 135.826,88.5215 133.992,94.1882 131,99.5C 120.348,118.802 109.681,138.135 99,157.5C 91.5743,163.869 86.5743,162.202 84,152.5C 83.7063,130.119 84.7063,107.785 87,85.5C 87.2282,80.7211 89.5615,77.7211 94,76.5C 95.7106,76.4393 97.044,77.1059 98,78.5C 98.165,89.6859 97.665,100.853 96.5,112C 96.6667,115.833 96.8333,119.667 97,123.5C 99,124.833 101,124.833 103,123.5C 111.337,106.821 120.171,90.4872 129.5,74.5 Z"/></g>
<g><path style="opacity:1" fill="#a82da5" d="M 182.5,74.5 C 196.703,72.6798 205.536,78.6798 209,92.5C 211.192,103.952 208.359,113.785 200.5,122C 198.5,122.667 196.5,123.333 194.5,124C 186.5,124.333 178.5,124.667 170.5,125C 166.961,128.503 166.794,132.337 170,136.5C 171.637,138.81 173.804,140.31 176.5,141C 188.263,141.042 199.93,141.708 211.5,143C 213.745,149.311 212.412,154.644 207.5,159C 195.833,159.667 184.167,159.667 172.5,159C 165.026,156.86 160.193,152.026 158,144.5C 152.012,122.075 156.012,101.741 170,83.5C 173.79,79.8616 177.957,76.8616 182.5,74.5 Z M 184.5,95.5 C 180.775,98.0822 178.108,101.582 176.5,106C 182.143,106.781 187.476,105.948 192.5,103.5C 194.301,96.6336 191.635,93.9669 184.5,95.5 Z"/></g>
<g><path style="opacity:1" fill="#a82da5" d="M 328.5,74.5 C 345.286,73.7742 355.12,81.7742 358,98.5C 359.422,113.387 357.422,127.72 352,141.5C 344.833,157.245 332.666,163.078 315.5,159C 312.452,158.394 309.952,156.894 308,154.5C 301.908,146.093 299.075,136.593 299.5,126C 299.03,106.283 306.363,90.2826 321.5,78C 323.925,76.7874 326.259,75.6207 328.5,74.5 Z M 328.5,97.5 C 320.738,104.361 316.738,113.028 316.5,123.5C 316.76,135.298 322.426,139.131 333.5,135C 342.051,124.468 343.884,112.968 339,100.5C 336.103,97.7691 332.603,96.7691 328.5,97.5 Z"/></g>
<g><path style="opacity:1" fill="#a82da5" d="M 433.5,74.5 C 438.641,74.6443 440.975,77.311 440.5,82.5C 439.826,88.5215 437.992,94.1882 435,99.5C 424.348,118.802 413.681,138.135 403,157.5C 395.574,163.869 390.574,162.202 388,152.5C 387.706,130.119 388.706,107.785 391,85.5C 391.228,80.7211 393.562,77.7211 398,76.5C 399.711,76.4393 401.044,77.1059 402,78.5C 402.165,89.6859 401.665,100.853 400.5,112C 400.667,115.833 400.833,119.667 401,123.5C 403,124.833 405,124.833 407,123.5C 415.337,106.821 424.171,90.4872 433.5,74.5 Z"/></g>
<g><path style="opacity:1" fill="#a82da5" d="M 486.5,74.5 C 500.703,72.6798 509.536,78.6798 513,92.5C 515.192,103.952 512.359,113.785 504.5,122C 502.5,122.667 500.5,123.333 498.5,124C 490.5,124.333 482.5,124.667 474.5,125C 470.961,128.503 470.794,132.337 474,136.5C 475.637,138.81 477.804,140.31 480.5,141C 492.263,141.042 503.93,141.708 515.5,143C 517.745,149.311 516.412,154.644 511.5,159C 499.833,159.667 488.167,159.667 476.5,159C 469.026,156.86 464.193,152.026 462,144.5C 456.012,122.075 460.012,101.741 474,83.5C 477.79,79.8616 481.957,76.8616 486.5,74.5 Z M 488.5,95.5 C 484.775,98.0822 482.108,101.582 480.5,106C 486.143,106.781 491.476,105.948 496.5,103.5C 498.301,96.6336 495.635,93.9669 488.5,95.5 Z"/></g>
<g><path style="opacity:0.893" fill="#882586" d="M 185.5,90.5 C 196.175,90.9709 199.675,96.3042 196,106.5C 194.2,108.317 192.034,109.484 189.5,110C 171.621,113.82 167.955,108.486 178.5,94C 180.713,92.3838 183.047,91.2172 185.5,90.5 Z M 184.5,95.5 C 180.775,98.0822 178.108,101.582 176.5,106C 182.143,106.781 187.476,105.948 192.5,103.5C 194.301,96.6336 191.635,93.9669 184.5,95.5 Z"/></g>
<g><path style="opacity:0.893" fill="#882586" d="M 489.5,90.5 C 500.175,90.9709 503.675,96.3042 500,106.5C 498.2,108.317 496.034,109.484 493.5,110C 475.621,113.82 471.955,108.486 482.5,94C 484.713,92.3838 487.047,91.2172 489.5,90.5 Z M 488.5,95.5 C 484.775,98.0822 482.108,101.582 480.5,106C 486.143,106.781 491.476,105.948 496.5,103.5C 498.301,96.6336 495.635,93.9669 488.5,95.5 Z"/></g>
<g><path style="opacity:0.866" fill="#882586" d="M 328.5,92.5 C 341.031,92.524 347.031,98.8573 346.5,111.5C 346.449,122.16 342.782,131.327 335.5,139C 328.664,142.61 322.164,142.11 316,137.5C 308.532,119.017 312.699,104.017 328.5,92.5 Z M 328.5,97.5 C 320.738,104.361 316.738,113.028 316.5,123.5C 316.76,135.298 322.426,139.131 333.5,135C 342.051,124.468 343.884,112.968 339,100.5C 336.103,97.7691 332.603,96.7691 328.5,97.5 Z"/></g>
</svg>
