<svg width="484" height="87" xmlns="http://www.w3.org/2000/svg" version="1.1">

 <g>
  <title>Layer 1</title>
  <path id="svg_1" fill="#FE78C6" d="m360.71317,24.56039c4.8217,4.11263 7.34551,8.95264 9.875,14.625c0.31582,0.69287 0.63164,1.38574 0.95703,2.09961c0.77065,1.6931 1.5327,3.3901 2.29297,5.08789c2.01304,-3.2581 3.75927,-6.52999 5.375,-10c2.74047,-5.53032 5.841,-9.541 11.625,-12c6.45748,-1.04388 11.63191,0.36233 17,4c3.00688,2.71589 3.78647,5.7406 4.10938,9.76953c-0.52125,10.62971 -9.13772,22.05121 -14.10938,31.23047c-0.4328,0.8159 -0.86561,1.63179 -1.31152,2.47241c-0.42701,0.79286 -0.85401,1.58571 -1.29395,2.40259c-0.37922,0.71027 -0.75845,1.42055 -1.14917,2.15234c-2.88092,4.56339 -6.62966,7.30199 -11.55786,9.34766c-7.76483,1.31607 -15.58254,1.48725 -22.6875,-2.375c-4.31309,-3.69211 -6.73002,-7.64852 -9.25,-12.625c-0.56546,-1.10021 -0.56546,-1.10021 -1.14233,-2.22266c-0.79858,-1.56514 -1.59133,-3.13327 -2.37867,-4.7041c-0.83058,-1.65457 -1.66969,-3.30489 -2.5166,-4.95117c-1.27846,-2.48942 -2.52995,-4.99075 -3.7749,-7.49707c-0.39413,-0.76393 -0.78826,-1.52786 -1.19434,-2.31494c-2.54708,-5.2481 -3.60294,-9.84763 -2.74316,-15.68506c2.05512,-4.35685 4.60998,-7.07955 8.9375,-9.30859c4.99848,-1.67563 10.09513,-1.50402 14.9375,0.49609z"/>
  <path id="svg_2" fill="#FE78C6" d="m90.83817,23.37289c9.19985,4.42956 12.07949,14.19193 16,23c0.53109,-1.0248 1.06219,-2.04961 1.60938,-3.10547c0.71325,-1.36082 1.42681,-2.72149 2.14062,-4.08203c0.52207,-1.0103 0.52207,-1.0103 1.05469,-2.04102c4.97192,-9.43745 4.97192,-9.43745 9.38281,-12.08398c6.69938,-1.63763 11.96354,-1.1277 18.08594,2.04688c2.74184,2.00985 4.43052,4.14179 5.30298,7.45385c0.4189,9.03357 -3.39941,16.0306 -7.45508,23.83838c-1.18364,2.28551 -2.32518,4.58869 -3.46314,6.89722c-0.74954,1.48104 -1.50142,2.9609 -2.25586,4.43945c-0.33572,0.67823 -0.67145,1.35647 -1.01735,2.05525c-3.19719,6.06604 -8.03599,11.36971 -14.75999,13.45647c-8.0048,2.25811 -14.25164,1.25273 -22.04687,-1.41406c-5.91555,-3.35214 -8.44617,-8.73916 -10.89063,-14.83594c-3.51721,-8.41004 -7.53963,-16.51136 -11.6875,-24.625c-1.86178,-3.72357 -1.56372,-7.94505 -1,-12c2.125,-2.875 2.125,-2.875 5,-5c0.88687,-0.76313 1.77375,-1.52625 2.6875,-2.3125c4.53559,-2.31058 8.3157,-2.48504 13.3125,-1.6875z"/>
  <path id="svg_3" fill="#FE78C6" d="m321.6702,30.36117c6.74827,5.72071 10.7314,11.26053 12.16797,20.01172c0.80176,10.17624 -0.50895,17.43641 -7.1875,25.3125c-3.90883,4.07961 -7.47016,6.84973 -12.8125,8.6875c-0.62391,0.22172 -1.24781,0.44344 -1.89063,0.67187c-10.30864,3.10098 -20.32017,1.39851 -30.10937,-2.67187c-7.13055,-3.83325 -11.42777,-9.85554 -15,-17c-1.63782,-9.38023 -1.46677,-18.5297 3.625,-26.8125c11.59082,-15.76464 35.14817,-19.47365 51.20703,-8.19922zm-26.83203,18.01172c-2.68087,4.0213 -2.68211,7.27638 -2,12c1.44015,2.69138 1.44015,2.69138 4,4c3.64902,0.60817 5.26828,0.51418 8.3125,-1.625c2.08494,-2.93437 2.61407,-4.77719 2.6875,-8.375c-1.62371,-3.6747 -3.57852,-5.90297 -7,-8c-2.532,0 -3.83253,0.71306 -6,2z"/>
  <path id="svg_4" fill="#FE79C6" d="m471.52567,29.87289c5.93218,4.18308 10.03213,10.6589 12.3125,17.5c0.1174,1.68457 0.17507,3.37389 0.1875,5.0625c0.01418,0.87785 0.02836,1.7557 0.04297,2.66016c-0.23047,2.27734 -0.23047,2.27734 -2.23047,4.27734c-6.64443,1.22276 -13.26295,1.11731 -20,1.0625c-1.0609,-0.00451 -2.1218,-0.00902 -3.21484,-0.01367c-2.59512,-0.01169 -5.19011,-0.02808 -7.78516,-0.04883c1.44159,2.88317 2.42695,4.66928 5.25391,6.30078c3.31656,0.84447 6.26205,0.92759 9.68359,0.88672c1.18465,-0.00645 2.3693,-0.01289 3.58984,-0.01953c3.23773,-0.15661 6.29188,-0.56095 9.47266,-1.16797c1.625,1.5625 1.625,1.5625 3,4c-0.48967,4.40704 -1.79741,7.20827 -4.9375,10.25c-8.29468,6.38315 -19.02236,6.59621 -29.0625,5.75c-8.63167,-1.52324 -17.69914,-4.69914 -24,-11c-6.19234,-9.16769 -7.82125,-15.89532 -7,-27c1.64852,-7.6966 5.72768,-13.31916 12,-18c13.81683,-7.68238 28.75806,-8.62746 42.6875,-0.5zm-19.625,13.3125c-1.28095,2.23194 -1.28095,2.23194 -1.0625,5.1875c4.29,0 8.58,0 13,0c-1.32918,-5.47825 -1.32918,-5.47825 -3,-7c-4.92336,-0.60821 -4.92336,-0.60821 -8.9375,1.8125z"/>
  <path id="svg_5" fill="#FE78C5" d="m202.05692,28.69711c7.12913,5.06754 12.14626,11.28914 14.78125,19.67578c0.45817,2.9323 0.36294,4.99281 0,8c-1.47703,1.94679 -2.44976,2.84465 -4.8125,3.51172c-9.04765,0.72704 -18.11757,0.57209 -27.1875,0.48828c-0.22422,2.21792 -0.22422,2.21792 1.875,4.0625c5.01086,4.56873 11.69267,3.13829 18.125,2.9375c1.42116,-0.17505 2.84034,-0.37359 4.25,-0.625c0.9075,-0.12375 1.815,-0.2475 2.75,-0.375c2,2 2,2 2.1875,3.98828c-0.36086,4.47317 -0.69471,6.472 -3.8125,9.88672c-10.08684,6.35098 -20.75026,7.61354 -32.45313,5.59375c-8.7648,-2.25241 -18.22079,-5.79709 -23.36718,-13.68359c-4.66301,-8.22021 -5.3746,-15.4457 -4.55469,-24.78516c2.3434,-7.97597 7.46338,-14.52256 14.75391,-18.5039c11.95004,-5.58518 25.6313,-7.2345 37.46484,-0.17188zm-15.03125,12.67578c-2.71782,2.08904 -2.71782,2.08904 -3.1875,7c4.29,0 8.58,0 13,0c-0.42385,-5.05587 -0.42385,-5.05587 -3.75,-7c-3.19152,-1.33617 -3.19152,-1.33617 -6.0625,0z"/>
  <path id="svg_6" fill="#FE79C6" d="m58.77567,28.5057c1.4375,1.17969 1.4375,1.17969 3.0625,3.86719c-0.1875,3.8125 -0.1875,3.8125 -1,7c-5.20173,0.86809 -10.16979,1.12515 -15.4375,1.0625c-1.09731,-0.00677 -1.09731,-0.00677 -2.2168,-0.01367c-1.78193,-0.01165 -3.56383,-0.02958 -5.3457,-0.04883c-0.66,1.32 -1.32,2.64 -2,4c1.26844,0.16435 1.26844,0.16435 2.5625,0.33203c10.09609,1.41116 18.35549,2.83947 25.4375,10.66797c2.77502,4.46215 2.4883,8.90431 2,14c-1.71789,6.06315 -4.75738,9.68303 -10,13c-13.62416,5.99556 -30.01366,5.543 -44,1c-5.20808,-2.28106 -9.10896,-4.14938 -11.625,-9.375c-0.375,-2.625 -0.375,-2.625 1,-4.6875c3.5602,-2.62777 5.52232,-1.91815 9.75781,-1.3086c3.10089,0.40135 6.11616,0.5242 9.24219,0.5586c0.97711,0.01418 1.95422,0.02836 2.96094,0.04297c2.7194,-0.23526 4.34292,-0.83889 6.66406,-2.23047c0,-1.32 0,-2.64 0,-4c-0.99,-0.17016 -1.98,-0.34032 -3,-0.51563c-16.76073,-3.01307 -16.76073,-3.01307 -21.36328,-7.94531c-3.26095,-4.77377 -3.51168,-9.93753 -2.63672,-15.53906c1.86322,-5.6999 5.75395,-9.30288 11,-12c13.21422,-5.76242 32.43636,-5.17633 44.9375,2.13281z"/>
  <path id="svg_7" fill="#FE79C6" d="m253.08035,2.3807c3.41462,1.92737 6.00802,4.4926 7.75781,7.99219c0.11212,2.06127 0.15933,4.12618 0.177,6.19043c0.01926,1.95278 0.01926,1.95278 0.0389,3.945c0.00817,1.42881 0.01561,2.85763 0.02238,4.28644c0.00408,0.71883 0.00815,1.43765 0.01235,2.17826c0.02087,3.80647 0.03517,7.61289 0.04454,11.4194c0.01105,3.92536 0.04543,7.85015 0.08517,11.77531c0.02619,3.02326 0.03452,6.04639 0.03811,9.06976c0.00486,1.44644 0.01646,2.89288 0.03504,4.33922c0.02444,2.02925 0.021,4.05878 0.01648,6.08817c0.00587,1.15313 0.01174,2.30625 0.01778,3.49432c-0.6008,3.95855 -2.00074,6.10911 -4.48775,9.21369c-6.66964,4.02957 -13.51347,5.08535 -21.15234,3.57422c-4.46472,-1.39684 -7.63569,-3.55513 -10.59265,-7.16675c-2.75688,-5.28851 -2.10916,-11.45509 -2.05188,-17.28247c-0.00405,-1.45297 -0.00988,-2.90593 -0.0174,-4.35889c-0.00881,-3.03637 0.00392,-6.07167 0.03205,-9.10791c0.03418,-3.87752 0.01448,-7.75255 -0.02144,-11.62997c-0.02176,-2.99774 -0.01474,-5.99489 0.00077,-8.99265c0.00398,-1.42884 -0.00084,-2.85773 -0.01488,-4.2865c-0.096,-12.50962 -0.096,-12.50962 3.66445,-17.05768c7.28913,-7.01871 17.37865,-7.51667 26.39551,-3.68359z"/>
  <path id="svg_8" fill="#FE82CD" d="m76.83817,25.37289c0.66,0.33 1.32,0.66 2,1c-2.64,2.64 -5.28,5.28 -8,8c0,-3 0,-3 2.4375,-5.625c0.84563,-0.78375 1.69125,-1.5675 2.5625,-2.375c0.33,-0.33 0.66,-0.66 1,-1z"/>
 </g>
</svg>